<?xml version="1.0" standalone="no"?><!DOCTYPE svg PUBLIC "-//W3C//DTD SVG 1.1//EN" "http://www.w3.org/Graphics/SVG/1.1/DTD/svg11.dtd"><svg t="1588933054429" class="icon" viewBox="0 0 1024 1024" version="1.1" xmlns="http://www.w3.org/2000/svg" p-id="1040" width="40" height="40" xmlns:xlink="http://www.w3.org/1999/xlink"><defs><style type="text/css"></style></defs><path d="M151.466667 107.52c8.426667-31.36 38.4-58.133333 72.533333-51.2 46.506667 8.853333 83.2 42.24 117.013333 73.28-46.4 21.76-90.133333 49.28-129.066666 82.666667-13.226667-25.173333-26.56-50.346667-40.853334-74.986667-3.626667 37.333333-1.706667 74.88 4.48 111.893333-9.173333 12.906667-17.493333 26.346667-25.92 39.786667-21.013333-58.346667-15.253333-122.88 1.813334-181.44zM672.106667 124.16c41.386667-29.12 86.4-58.133333 137.6-64.64 38.613333-4.8 74.986667 22.293333 84.693333 59.306667 17.173333 60.373333 22.613333 129.28-8.32 186.346666-8.106667-13.653333-16.32-27.2-24.32-40.853333-1.28-41.6-3.093333-83.306667-12.906667-123.84-12.053333 24.533333-23.146667 49.706667-34.24 74.773333-40.96-39.573333-90.346667-69.013333-142.506666-91.093333zM345.92 381.226667c6.506667-1.386667 19.306667-4.16 25.813333-5.546667 3.626667 10.56 9.386667 21.226667 6.4 32.746667-10.666667 1.6-21.333333 2.986667-32 4.266666 0-10.453333-0.106667-21.013333-0.213333-31.466666zM779.626667 412.586667c0.746667-18.453333 11.2-32.213333 27.52-40.106667 3.2 13.653333 7.68 26.986667 14.186666 39.466667-13.973333-0.106667-27.84 0.106667-41.706666 0.64z" fill="#EFAD54" p-id="1041"></path><path d="M341.013333 129.6c103.573333-46.08 225.92-47.786667 331.093334-5.44 52.16 22.08 101.546667 51.52 142.506666 91.093333a682.666667 682.666667 0 0 1 47.146667 49.066667c8 13.653333 16.213333 27.2 24.32 40.853333 60.693333 96 76.053333 216.213333 52.586667 326.4-28.586667 127.893333-118.186667 240.106667-236.373334 296.746667-81.706667 41.066667-176.106667 49.706667-265.706666 36.48-144.96-24.533333-272.533333-128.426667-327.466667-264.64-55.466667-132.693333-39.786667-291.84 40.533333-411.2 8.426667-13.44 16.746667-26.88 25.92-39.786667 11.2-13.226667 23.573333-25.386667 36.373334-36.906666 38.933333-33.386667 82.666667-60.906667 129.066666-82.666667m24.746667 23.146667c-18.026667 33.066667-16.32 72.64-22.933333 108.8 13.013333 3.093333 26.133333 6.186667 39.146666 9.173333-20.8 4.373333-41.813333 8.533333-62.72 12.48-22.613333 7.04-41.6 21.76-60.906666 34.88-49.386667 9.066667-105.706667 50.453333-95.573334 106.56 16 60.16 85.226667 80.96 140.8 79.146667l-15.893333 14.08c-60.906667-5.44-122.346667-1.706667-183.466667-2.88-0.853333 51.413333 3.626667 103.36 20.266667 152.32 53.013333 166.4 224 284.16 398.186667 276.586666 190.933333 0.213333 370.773333-152.533333 394.346666-343.253333 23.36-112.853333-12.693333-234.986667-83.413333-324.8-105.706667-136.64-309.333333-200-467.84-123.093333z" fill="#FFCD73" p-id="1042"></path><path d="M365.76 152.746667c158.506667-76.906667 362.133333-13.546667 467.84 123.093333 70.72 89.813333 106.773333 211.946667 83.413333 324.8-0.106667-20.8-0.96-41.6-1.6-62.4-24.213333 4.053333-48.533333 9.92-73.28 8.533333-47.253333-5.333333-90.346667-29.76-138.24-32.106666-39.786667-0.426667-76.906667 18.24-116.586666 19.52-42.026667-8.746667-75.306667-41.173333-118.08-47.36-36.48-4.906667-66.346667 19.946667-97.28 34.666666-26.346667 15.573333-56.746667-1.173333-84.266667-3.626666l15.893333-14.08c23.36-10.666667 48.853333-18.346667 68.266667-35.84 15.146667-16.426667 22.293333-38.293333 31.253333-58.346667 15.253333-33.386667 30.293333-72.533333 11.626667-107.946667-23.36-26.666667-64.106667-16.853333-95.466667-18.453333 20.906667-3.946667 41.92-8.106667 62.72-12.48-13.013333-2.986667-26.133333-6.08-39.146666-9.173333 6.613333-36.16 4.906667-75.733333 22.933333-108.8m164.48 144.32c-21.866667 44.906667-6.186667 104.213333 34.133333 133.973333 42.24 82.24 161.28 94.186667 233.706667 46.933333 30.4-18.56 52.586667-58.88 34.56-93.333333-26.773333-51.413333-90.24-69.76-144.533333-66.773333-42.346667-33.92-111.146667-59.413333-157.866667-20.8zM171.093333 137.28c14.293333 24.64 27.626667 49.813333 40.853334 74.986667-12.8 11.52-25.173333 23.68-36.373334 36.906666-6.186667-37.013333-8.106667-74.56-4.48-111.893333zM814.613333 215.253333c11.093333-25.066667 22.186667-50.24 34.24-74.773333 9.813333 40.533333 11.626667 82.24 12.906667 123.84a682.666667 682.666667 0 0 0-47.146667-49.066667z" fill="#FDEB78" p-id="1043"></path><path d="M530.24 297.066667c46.72-38.613333 115.52-13.12 157.866667 20.8-58.986667 5.76-131.093333 44.16-123.733334 113.173333-40.32-29.76-56-89.066667-34.133333-133.973333zM258.346667 318.08c19.306667-13.12 38.293333-27.84 60.906666-34.88 31.36 1.6 72.106667-8.213333 95.466667 18.453333 18.666667 35.413333 3.626667 74.56-11.626667 107.946667-14.293333-65.493333-81.493333-100.48-144.746666-91.52zM371.946667 521.493333c30.933333-14.72 60.8-39.573333 97.28-34.666666 42.773333 6.186667 76.053333 38.613333 118.08 47.36 39.68-1.28 76.8-19.946667 116.586666-19.52 47.893333 2.346667 90.986667 26.773333 138.24 32.106666 24.746667 1.386667 49.066667-4.48 73.28-8.533333 0.64 20.8 1.493333 41.6 1.6 62.4C893.44 791.36 713.6 944.106667 522.666667 943.893333c-174.186667 7.573333-345.173333-110.186667-398.186667-276.586666-16.64-48.96-21.12-100.906667-20.266667-152.32 61.12 1.173333 122.56-2.56 183.466667 2.88 27.52 2.453333 57.92 19.2 84.266667 3.626666M309.333333 587.2c-9.066667 40.106667 23.68 77.013333 59.2 91.413333 8.213333 28.48 21.013333 55.36 37.013334 80.213334-25.493333 4.266667-52.906667 11.946667-77.653334 0.426666-26.986667-9.92-41.066667-36.266667-56.533333-58.346666-3.626667 3.946667-10.773333 11.946667-14.4 16 22.186667 68.373333 109.226667 91.946667 169.173333 58.133333 75.946667 32.853333 173.333333 11.093333 223.466667-55.786667 8.64-23.68-21.44-15.786667-28.8-2.986666-43.413333 44.693333-113.706667 62.613333-172.373333 39.893333-32.32-12.373333-45.653333-47.04-55.04-77.546667 28.48-21.866667 57.173333-49.813333 62.08-87.146666-8.853333-24.32-39.253333-21.653333-60.16-23.253334-28.48 1.92-65.706667-6.506667-85.973334 18.986667z" fill="#FFFFAC" p-id="1044"></path><path d="M162.773333 424.64c-10.133333-56.106667 46.186667-97.493333 95.573334-106.56 63.253333-8.96 130.453333 26.026667 144.746666 91.52-8.96 20.053333-16.106667 41.92-31.253333 58.346667-19.413333 17.493333-44.906667 25.173333-68.266667 35.84-55.573333 1.813333-124.8-18.986667-140.8-79.146667m32.32-58.56c-24.32 23.04-24.426667 66.24 0.426667 88.853333 40.32 39.573333 105.066667 37.973333 153.6 15.36-45.226667 8.96-88.746667-39.573333-67.306667-82.133333 12.16-31.466667 48.426667-36.266667 77.866667-34.56-26.56-11.626667-54.506667-19.733333-82.88-25.813333-28.266667 10.026667-60.906667 14.613333-81.706667 38.293333m150.826667 15.146667c0.106667 10.453333 0.213333 21.013333 0.213333 31.466666 10.666667-1.28 21.333333-2.666667 32-4.266666 2.986667-11.52-2.773333-22.186667-6.4-32.746667-6.506667 1.386667-19.306667 4.16-25.813333 5.546667zM564.373333 431.04c-7.36-69.013333 64.746667-107.413333 123.733334-113.173333 54.293333-2.986667 117.76 15.36 144.533333 66.773333 18.026667 34.453333-4.16 74.773333-34.56 93.333333-72.426667 47.253333-191.466667 35.306667-233.706667-46.933333m42.56-67.84c-26.986667 19.306667-38.933333 61.76-12.373333 86.613333 47.466667 51.413333 124.373333 41.813333 186.56 30.613334-32.426667-7.893333-73.813333-24.746667-72.32-64.96-3.52-44.8 44.586667-68.16 83.413333-62.613334-58.56-25.92-132.053333-29.76-185.28 10.346667m172.693334 49.386667c13.866667-0.533333 27.733333-0.746667 41.706666-0.64-6.506667-12.48-10.986667-25.813333-14.186666-39.466667-16.32 7.893333-26.773333 21.653333-27.52 40.106667z" fill="#1F1F1F" p-id="1045"></path><path d="M195.093333 366.08c20.8-23.68 53.44-28.266667 81.706667-38.293333 28.373333 6.08 56.32 14.186667 82.88 25.813333-29.44-1.706667-65.706667 3.093333-77.866667 34.56-21.44 42.56 22.08 91.093333 67.306667 82.133333-48.533333 22.613333-113.28 24.213333-153.6-15.36-24.853333-22.613333-24.746667-65.813333-0.426667-88.853333zM606.933333 363.2c53.226667-40.106667 126.72-36.266667 185.28-10.346667-38.826667-5.546667-86.933333 17.813333-83.413333 62.613334-1.493333 40.213333 39.893333 57.066667 72.32 64.96-62.186667 11.2-139.093333 20.8-186.56-30.613334-26.56-24.853333-14.613333-67.306667 12.373333-86.613333zM429.653333 590.72c17.386667 1.493333 12.586667 30.186667-2.666666 31.36-17.066667-1.6-12.053333-29.866667 2.666666-31.36z" fill="#FFFFFF" p-id="1046"></path><path d="M309.333333 587.2c20.266667-25.493333 57.493333-17.066667 85.973334-18.986667 20.906667 1.6 51.306667-1.066667 60.16 23.253334-4.906667 37.333333-33.6 65.28-62.08 87.146666 9.386667 30.506667 22.72 65.173333 55.04 77.546667 58.666667 22.72 128.96 4.8 172.373333-39.893333 7.36-12.8 37.44-20.693333 28.8 2.986666-50.133333 66.88-147.52 88.64-223.466667 55.786667-59.946667 33.813333-146.986667 10.24-169.173333-58.133333 3.626667-4.053333 10.773333-12.053333 14.4-16 15.466667 22.08 29.546667 48.426667 56.533333 58.346666 24.746667 11.52 52.16 3.84 77.653334-0.426666-16-24.853333-28.8-51.733333-37.013334-80.213334-35.52-14.4-68.266667-51.306667-59.2-91.413333m120.32 3.52c-14.72 1.493333-19.733333 29.76-2.666666 31.36 15.253333-1.173333 20.053333-29.866667 2.666666-31.36z" fill="#7D1910" p-id="1047"></path></svg>